<svg xmlns="http://www.w3.org/2000/svg" viewBox="0 0 500 500" width="500" height="500">
<rect width="500" height="500" fill="#08080b"/>
<circle cx="319.7" cy="12.5" r="0.73" fill="#ffffff" fill-opacity="0.5"/>
<circle cx="368.2" cy="338.3" r="1.47" fill="#ffffff" fill-opacity="0.41"/>
<circle cx="211.0" cy="14.9" r="0.66" fill="#ffffff" fill-opacity="0.68"/>
<circle cx="13.3" cy="99.4" r="1.18" fill="#ffffff" fill-opacity="0.7"/>
<circle cx="110.2" cy="294.6" r="1.37" fill="#ffffff" fill-opacity="0.35"/>
<circle cx="402.9" cy="349.1" r="0.81" fill="#ffffff" fill-opacity="0.45"/>
<circle cx="478.6" cy="168.3" r="0.51" fill="#ffffff" fill-opacity="0.41"/>
<circle cx="423.7" cy="301.9" r="1.37" fill="#ffffff" fill-opacity="0.82"/>
<circle cx="268.1" cy="486.6" r="0.85" fill="#ffffff" fill-opacity="0.71"/>
<circle cx="414.7" cy="309.3" r="1.43" fill="#ffffff" fill-opacity="0.73"/>
<circle cx="352.3" cy="22.9" r="0.67" fill="#ffffff" fill-opacity="0.54"/>
<circle cx="39.9" cy="116.4" r="0.52" fill="#ffffff" fill-opacity="0.53"/>
<circle cx="317.8" cy="182.4" r="0.84" fill="#ffffff" fill-opacity="0.49"/>
<circle cx="133.5" cy="468.3" r="1.18" fill="#ffffff" fill-opacity="0.75"/>
<circle cx="85.6" cy="364.6" r="0.6" fill="#ffffff" fill-opacity="0.6"/>
<circle cx="494.8" cy="320.0" r="1.07" fill="#ffffff" fill-opacity="0.79"/>
<circle cx="421.4" cy="388.0" r="0.67" fill="#ffffff" fill-opacity="0.37"/>
<circle cx="157.7" cy="133.9" r="0.65" fill="#ffffff" fill-opacity="0.96"/>
<circle cx="438.2" cy="157.3" r="1.19" fill="#ffffff" fill-opacity="0.61"/>
<circle cx="457.3" cy="229.4" r="0.72" fill="#ffffff" fill-opacity="0.51"/>
<circle cx="280.7" cy="131.4" r="1.1" fill="#ffffff" fill-opacity="0.93"/>
<circle cx="199.7" cy="109.7" r="1.6" fill="#ffffff" fill-opacity="0.68"/>
<circle cx="45.5" cy="23.6" r="0.53" fill="#ffffff" fill-opacity="0.76"/>
<circle cx="396.0" cy="211.1" r="0.48" fill="#ffffff" fill-opacity="0.6"/>
<circle cx="498.1" cy="264.6" r="1.57" fill="#ffffff" fill-opacity="0.91"/>
<circle cx="5.7" cy="360.4" r="1.22" fill="#ffffff" fill-opacity="0.7"/>
<circle cx="133.4" cy="320.5" r="0.53" fill="#ffffff" fill-opacity="0.63"/>
<circle cx="226.9" cy="476.9" r="1.45" fill="#ffffff" fill-opacity="0.52"/>
<circle cx="250.3" cy="89.3" r="1.5" fill="#ffffff" fill-opacity="0.92"/>
<circle cx="149.2" cy="319.5" r="1.13" fill="#ffffff" fill-opacity="0.45"/>
<circle cx="381.3" cy="269.7" r="1.33" fill="#ffffff" fill-opacity="0.69"/>
<circle cx="0.3" cy="162.1" r="0.42" fill="#ffffff" fill-opacity="0.95"/>
<circle cx="439.4" cy="415.8" r="0.77" fill="#ffffff" fill-opacity="0.39"/>
<circle cx="439.0" cy="473.5" r="0.5" fill="#ffffff" fill-opacity="0.67"/>
<circle cx="34.6" cy="380.3" r="1.32" fill="#ffffff" fill-opacity="0.43"/>
<circle cx="237.6" cy="274.9" r="0.72" fill="#ffffff" fill-opacity="0.92"/>
<circle cx="211.6" cy="105.9" r="1.05" fill="#ffffff" fill-opacity="0.82"/>
<circle cx="100.6" cy="155.9" r="1.59" fill="#ffffff" fill-opacity="0.77"/>
<circle cx="219.1" cy="258.8" r="0.55" fill="#ffffff" fill-opacity="0.5"/>
<circle cx="169.0" cy="294.2" r="0.68" fill="#ffffff" fill-opacity="0.49"/>
<circle cx="35.5" cy="315.6" r="0.67" fill="#ffffff" fill-opacity="0.94"/>
<circle cx="429.8" cy="35.4" r="0.69" fill="#ffffff" fill-opacity="0.78"/>
<circle cx="107.1" cy="66.2" r="1.52" fill="#ffffff" fill-opacity="0.72"/>
<circle cx="236.3" cy="392.3" r="1.37" fill="#ffffff" fill-opacity="0.47"/>
<circle cx="48.5" cy="215.5" r="0.91" fill="#ffffff" fill-opacity="0.65"/>
<circle cx="364.5" cy="336.7" r="1.58" fill="#ffffff" fill-opacity="0.41"/>
<circle cx="201.3" cy="169.7" r="1.43" fill="#ffffff" fill-opacity="0.51"/>
<circle cx="95.1" cy="224.3" r="0.91" fill="#ffffff" fill-opacity="0.53"/>
<circle cx="124.9" cy="461.6" r="0.93" fill="#ffffff" fill-opacity="0.91"/>
<circle cx="275.2" cy="25.3" r="1.6" fill="#ffffff" fill-opacity="0.89"/>
<circle cx="484.5" cy="463.2" r="1.42" fill="#ffffff" fill-opacity="0.46"/>
<circle cx="242.8" cy="106.9" r="0.88" fill="#ffffff" fill-opacity="0.39"/>
<circle cx="189.5" cy="492.7" r="0.72" fill="#ffffff" fill-opacity="0.86"/>
<circle cx="227.5" cy="211.5" r="1.55" fill="#ffffff" fill-opacity="1.0"/>
<circle cx="277.9" cy="359.2" r="0.59" fill="#ffffff" fill-opacity="0.54"/>
<circle cx="484.4" cy="289.6" r="1.05" fill="#ffffff" fill-opacity="0.84"/>
<circle cx="28.6" cy="292.1" r="1.0" fill="#ffffff" fill-opacity="0.9"/>
<circle cx="78.7" cy="480.4" r="0.5" fill="#ffffff" fill-opacity="0.47"/>
<circle cx="297.5" cy="337.6" r="0.68" fill="#ffffff" fill-opacity="0.43"/>
<circle cx="445.1" cy="123.1" r="1.11" fill="#ffffff" fill-opacity="0.75"/>
<circle cx="209.6" cy="291.8" r="1.03" fill="#ffffff" fill-opacity="0.96"/>
<circle cx="102.1" cy="358.1" r="0.69" fill="#ffffff" fill-opacity="0.61"/>
<circle cx="335.8" cy="150.0" r="0.78" fill="#ffffff" fill-opacity="0.84"/>
<circle cx="36.3" cy="229.1" r="1.6" fill="#ffffff" fill-opacity="1.0"/>
<circle cx="36.6" cy="106.6" r="0.72" fill="#ffffff" fill-opacity="0.96"/>
<circle cx="440.4" cy="439.6" r="0.84" fill="#ffffff" fill-opacity="0.45"/>
<circle cx="416.9" cy="351.8" r="1.13" fill="#ffffff" fill-opacity="0.99"/>
<circle cx="327.0" cy="3.9" r="1.38" fill="#ffffff" fill-opacity="0.54"/>
<circle cx="331.7" cy="469.5" r="0.56" fill="#ffffff" fill-opacity="0.43"/>
<circle cx="53.5" cy="276.6" r="0.73" fill="#ffffff" fill-opacity="0.74"/>
<circle cx="358.8" cy="101.8" r="1.16" fill="#ffffff" fill-opacity="0.52"/>
<circle cx="244.3" cy="452.7" r="1.42" fill="#ffffff" fill-opacity="0.41"/>
<circle cx="211.8" cy="138.3" r="0.4" fill="#ffffff" fill-opacity="0.85"/>
<circle cx="318.6" cy="131.0" r="1.29" fill="#ffffff" fill-opacity="0.71"/>
<circle cx="213.8" cy="4.8" r="0.49" fill="#ffffff" fill-opacity="0.92"/>
<circle cx="452.0" cy="272.8" r="1.4" fill="#ffffff" fill-opacity="0.73"/>
<circle cx="74.0" cy="63.7" r="0.77" fill="#ffffff" fill-opacity="0.93"/>
<circle cx="398.1" cy="430.4" r="1.48" fill="#ffffff" fill-opacity="0.49"/>
<circle cx="124.8" cy="51.4" r="1.34" fill="#ffffff" fill-opacity="0.92"/>
<circle cx="203.2" cy="310.3" r="0.59" fill="#ffffff" fill-opacity="0.95"/>
<circle cx="432.3" cy="488.1" r="1.37" fill="#ffffff" fill-opacity="0.92"/>
<circle cx="12.4" cy="368.3" r="0.8" fill="#ffffff" fill-opacity="0.96"/>
<circle cx="401.1" cy="432.0" r="1.37" fill="#ffffff" fill-opacity="0.52"/>
<circle cx="393.7" cy="54.0" r="1.45" fill="#ffffff" fill-opacity="0.91"/>
<circle cx="111.2" cy="408.3" r="0.95" fill="#ffffff" fill-opacity="0.55"/>
<circle cx="397.7" cy="113.8" r="0.43" fill="#ffffff" fill-opacity="0.48"/>
<circle cx="164.1" cy="432.2" r="1.56" fill="#ffffff" fill-opacity="0.53"/>
<circle cx="320.7" cy="199.8" r="1.58" fill="#ffffff" fill-opacity="0.7"/>
<circle cx="469.6" cy="57.7" r="1.56" fill="#ffffff" fill-opacity="0.47"/>
<circle cx="481.3" cy="132.7" r="0.53" fill="#ffffff" fill-opacity="0.63"/>
<circle cx="364.3" cy="156.8" r="1.13" fill="#ffffff" fill-opacity="0.68"/>
<circle cx="192.6" cy="288.3" r="0.71" fill="#ffffff" fill-opacity="0.81"/>
<circle cx="0.8" cy="462.8" r="1.05" fill="#ffffff" fill-opacity="0.82"/>
<circle cx="371.0" cy="335.3" r="0.84" fill="#ffffff" fill-opacity="0.4"/>
<circle cx="332.1" cy="165.1" r="0.78" fill="#ffffff" fill-opacity="0.9"/>
<circle cx="359.9" cy="150.2" r="0.77" fill="#ffffff" fill-opacity="0.62"/>
<circle cx="201.2" cy="147.8" r="0.55" fill="#ffffff" fill-opacity="0.62"/>
<circle cx="470.2" cy="338.7" r="1.48" fill="#ffffff" fill-opacity="0.75"/>
<circle cx="150.5" cy="274.0" r="0.4" fill="#ffffff" fill-opacity="0.54"/>
<circle cx="214.9" cy="290.0" r="1.19" fill="#ffffff" fill-opacity="0.65"/>
<circle cx="221.1" cy="106.9" r="0.97" fill="#ffffff" fill-opacity="0.94"/>
<circle cx="398.0" cy="84.8" r="0.5" fill="#ffffff" fill-opacity="0.69"/>
<circle cx="316.5" cy="167.6" r="1.38" fill="#ffffff" fill-opacity="0.84"/>
<circle cx="336.4" cy="112.3" r="0.64" fill="#ffffff" fill-opacity="0.37"/>
<circle cx="122.4" cy="237.6" r="1.42" fill="#ffffff" fill-opacity="0.4"/>
<circle cx="207.2" cy="314.9" r="0.63" fill="#ffffff" fill-opacity="0.8"/>
<circle cx="247.2" cy="122.0" r="1.19" fill="#ffffff" fill-opacity="0.35"/>
<circle cx="375.5" cy="385.0" r="0.53" fill="#ffffff" fill-opacity="0.63"/>
<circle cx="87.9" cy="479.0" r="1.02" fill="#ffffff" fill-opacity="0.38"/>
<circle cx="124.6" cy="424.2" r="0.95" fill="#ffffff" fill-opacity="0.87"/>
</svg>